<svg xmlns="http://www.w3.org/2000/svg" viewBox="0 0 671.15 342.41"><defs><style>.cls-1{isolation:isolate;}.cls-16,.cls-2{fill:#c66767;}.cls-3{fill:#efca6f;}.cls-4{fill:#373c44;}.cls-5{fill:#ce8282;}.cls-6{fill:#d19582;}.cls-7{fill:#e5b5a3;}.cls-8{fill:none;stroke:#fff;stroke-miterlimit:10;}.cls-9{fill:#685a56;}.cls-10{fill:#5b66b2;}.cls-11{fill:#c15252;}.cls-12{fill:#e28269;}.cls-13{fill:#fff;}.cls-14{fill:#eaad9b;}.cls-15{fill:#f2c3b3;}.cls-16{opacity:0.64;mix-blend-mode:multiply;}.cls-17{fill:#bfd6d8;}.cls-18{fill:#a9b7b7;}.cls-19{fill:#676d82;}.cls-20{fill:#b75c5c;}</style></defs><g class="cls-1"><g id="OBJECTS"><path class="cls-2" d="M381.54,181.3c13.3.55,14.64-10,14.59-14.65a47,47,0,0,0-14.23-2.09,49,49,0,0,0-14.06,2C367.52,170.93,368.29,180.76,381.54,181.3Z" transform="translate(-45.22 -69.2)"/><path class="cls-3" d="M396.13,166.65c.05,4.69-1.29,15.2-14.59,14.65s-14-10.37-13.7-14.75c-30.35,9.06-37.9,46.09-37.9,46.09h99.62S425.35,175.9,396.13,166.65Z" transform="translate(-45.22 -69.2)"/><path class="cls-4" d="M354.15,98.51s-9.69,10,0,20,56.93-.5,56.93-.5,7-13.79-4.28-23.58-37.63-6.75-37.92-6.75S354.15,98.51,354.15,98.51Z" transform="translate(-45.22 -69.2)"/><circle class="cls-5" cx="306.09" cy="52.97" r="7.82"/><circle class="cls-5" cx="364.17" cy="52.97" r="7.82"/><path class="cls-6" d="M390.45,150.56l-1.32-17.37-13.57,1.86-2.22,25.4A24.49,24.49,0,0,0,390.45,150.56Z" transform="translate(-45.22 -69.2)"/><path class="cls-7" d="M353.5,114.72a43.62,43.62,0,0,0,.39,9.55c.91,8.21,4.84,15.36,12.28,19.33s17.65,5.39,25.6,2.12a23.69,23.69,0,0,0,13.35-13.14c2.77-7,2.8-15.82,2.43-23.32-1.39-27.76-24-27.35-24-27.35S353.39,79.59,353.5,114.72Z" transform="translate(-45.22 -69.2)"/><path class="cls-7" d="M373.34,160.45l-1,11.18s.4,5.58,9.44,6.65,10.11-8.38,10.11-8.38l-1.47-19.34A24.49,24.49,0,0,1,373.34,160.45Z" transform="translate(-45.22 -69.2)"/><path class="cls-4" d="M369.51,120.31c0,1.53-.62,2.78-1.39,2.78s-1.39-1.25-1.39-2.78.62-2.78,1.39-2.78S369.51,118.78,369.51,120.31Z" transform="translate(-45.22 -69.2)"/><path class="cls-4" d="M395.21,120.78c0,1.53-.62,2.78-1.39,2.78s-1.39-1.25-1.39-2.78.62-2.78,1.39-2.78S395.21,119.25,395.21,120.78Z" transform="translate(-45.22 -69.2)"/><path class="cls-4" d="M380.78,122.17l-1.62,1c-.48.33-1,.79-1.05,1.12,0,.14.05.3.29.5a1.76,1.76,0,0,0,.67.42,2.21,2.21,0,0,0,1.71-.3,2,2,0,0,1-1.82.88,2.15,2.15,0,0,1-1-.45,1.33,1.33,0,0,1-.58-1.12,1.63,1.63,0,0,1,.63-1,4.1,4.1,0,0,1,.89-.53A5.73,5.73,0,0,1,380.78,122.17Z" transform="translate(-45.22 -69.2)"/><path class="cls-4" d="M376.92,128.68a12.52,12.52,0,0,0,1.9,1,5.86,5.86,0,0,0,2,.48,4,4,0,0,0,1.95-.38,9,9,0,0,0,1.82-1.12,7,7,0,0,1-.66.91,4.5,4.5,0,0,1-.89.73,3.7,3.7,0,0,1-2.26.6A5.1,5.1,0,0,1,376.92,128.68Z" transform="translate(-45.22 -69.2)"/><circle class="cls-5" cx="321.51" cy="58.57" r="2.92"/><circle class="cls-5" cx="348.6" cy="59.48" r="2.92"/><path class="cls-4" d="M378.26,131.94s4.17,1.25,6,0c0,4.07-.27,7.88-1.5,7.56s-1.21-2.31-1.21-2.31.13,3.7-1.26,3.38-1.45-4.56-1.45-4.56,0,2.63-1.61,2S378.26,131.94,378.26,131.94Z" transform="translate(-45.22 -69.2)"/><path class="cls-8" d="M374.22,120.78s7.32-5.09,12.8,0" transform="translate(-45.22 -69.2)"/><path class="cls-4" d="M364.12,104.09a8.51,8.51,0,0,1-5.32,4c-3.12.75-7.21.79-8.85-3.38a13,13,0,0,1,1.36-12.38s-9.5-7.75-2.4-13.87,11.77,1.07,11.77,1.07.86-6.53,7.44-7,8.8,6,8.8,6a11.05,11.05,0,0,1,11.45-4.82c7.66,1.53,6.29,9.44,6.29,9.44a8.67,8.67,0,0,1,6.55-.94c6.51,1.38,9.57,8.66,8.18,16.06a24.1,24.1,0,0,0,1,11.83c.56,1.67-.31,3-1,2.86-1.74-.34-2-17.23-8.54-16.78-.31,3.73-2,9.82-7.09,8.38a6.31,6.31,0,0,1-3-2.16c-1.31-1.6-1.94-3.64-3.38-5.14A12.23,12.23,0,0,0,384,94.73a11,11,0,0,0-9.23,0A22.91,22.91,0,0,0,364.12,104.09Z" transform="translate(-45.22 -69.2)"/><path class="cls-4" d="M389.46,114.35a5.25,5.25,0,0,1,1.8-2.39,5.7,5.7,0,0,1,2.89-1.16,5,5,0,0,1,3.1.63,5.88,5.88,0,0,1,1.22.93,6.07,6.07,0,0,1,.85,1.24c-1-.25-1.81-.58-2.63-.7a7.09,7.09,0,0,0-2.33-.11A17.22,17.22,0,0,0,389.46,114.35Z" transform="translate(-45.22 -69.2)"/><path class="cls-4" d="M372.37,113.6a7.25,7.25,0,0,0-5-1.69,17.33,17.33,0,0,0-2.67.35c-.46.13-.94.21-1.43.32a10.12,10.12,0,0,1-1.53.29,10,10,0,0,1,1.09-1.17,13.83,13.83,0,0,1,1.31-.91,7.18,7.18,0,0,1,3.17-.88,5.36,5.36,0,0,1,3.29.94A4.1,4.1,0,0,1,372.37,113.6Z" transform="translate(-45.22 -69.2)"/><rect class="cls-8" x="308.18" y="42.75" width="20.83" height="15.16"/><rect class="cls-8" x="341.8" y="43.24" width="20.7" height="15.16"/><path class="cls-9" d="M221.79,102.31l-9.28-2.43s-5.58,17.33,2.2,23.28S221.79,102.31,221.79,102.31Z" transform="translate(-45.22 -69.2)"/><path class="cls-4" d="M191.14,212.64s9.8-48.08,52-48.08,47.66,48.08,47.66,48.08Z" transform="translate(-45.22 -69.2)"/><circle class="cls-5" cx="212.51" cy="122.17" r="7.82" transform="translate(-75.73 20.95) rotate(-22.39)"/><circle class="cls-5" cx="270.59" cy="122.17" r="7.82" transform="translate(-52.35 157.92) rotate(-45)"/><path class="cls-6" d="M251.65,150.56l-1.32-17.37-13.57,1.86-2.21,25.4A24.45,24.45,0,0,0,251.65,150.56Z" transform="translate(-45.22 -69.2)"/><path class="cls-7" d="M219.49,103.48c3.39,3.41-.55,11.76-4.78,11.24a42.42,42.42,0,0,0,.39,9.55c.91,8.21,4.83,15.36,12.28,19.33S245,149,253,145.72a23.69,23.69,0,0,0,13.35-13.14c2.78-7,2.81-15.82,2.43-23.32-1.39-27.76-24-27.35-24-27.35S227.82,82.66,219.49,103.48Z" transform="translate(-45.22 -69.2)"/><path class="cls-7" d="M234.55,160.45l-1,11.18s.4,5.58,9.45,6.65,10.1-8.38,10.1-8.38l-1.47-19.34A24.45,24.45,0,0,1,234.55,160.45Z" transform="translate(-45.22 -69.2)"/><ellipse class="cls-4" cx="184.1" cy="51.11" rx="1.39" ry="2.78"/><path class="cls-4" d="M256.41,120.78c0,1.53-.62,2.78-1.39,2.78s-1.39-1.25-1.39-2.78S254.26,118,255,118,256.41,119.25,256.41,120.78Z" transform="translate(-45.22 -69.2)"/><path class="cls-4" d="M242,122.17c-.56.35-1.1.69-1.61,1s-1,.79-1.06,1.12c0,.14.06.3.29.5a1.8,1.8,0,0,0,.68.42,2.19,2.19,0,0,0,1.7-.3,2,2,0,0,1-1.82.88,2.2,2.2,0,0,1-1-.45,1.33,1.33,0,0,1-.58-1.12,1.59,1.59,0,0,1,.64-1,3.82,3.82,0,0,1,.88-.53A5.87,5.87,0,0,1,242,122.17Z" transform="translate(-45.22 -69.2)"/><path class="cls-4" d="M238.12,128.68a12.52,12.52,0,0,0,1.9,1,5.67,5.67,0,0,0,2,.47,3.91,3.91,0,0,0,1.95-.37,9.58,9.58,0,0,0,1.83-1.12,9.55,9.55,0,0,1-.66.91,4.5,4.5,0,0,1-.89.73,3.74,3.74,0,0,1-2.26.6A5.1,5.1,0,0,1,238.12,128.68Z" transform="translate(-45.22 -69.2)"/><circle class="cls-5" cx="182.72" cy="60.42" r="2.92"/><circle class="cls-5" cx="209.8" cy="60.42" r="2.92"/><path class="cls-9" d="M264.82,109.32c-.76-2.21-1.05-4.56-1.71-6.81a10.05,10.05,0,0,0-3.75-5.77,9.84,9.84,0,0,0-6.82-1.11c-6.23.88-11.6,4.73-17.54,6.83a32.43,32.43,0,0,1-20.47.32,18.56,18.56,0,0,1-6.44-3.33A13.23,13.23,0,0,1,204,86a5,5,0,0,1,1.26-2.33,2.29,2.29,0,0,1,2.47-.52c1.29.63,1.36,2.3,1.58,3.53.3,1.64.78,3.94,1.92,5.18.88-1.45.38-3.81.56-5.47a7.13,7.13,0,0,1,2.38-5.05,1.76,1.76,0,0,1,1.2-.43c1.13.14,1.26,1.69,1.21,2.82a15.1,15.1,0,0,0,.93,5.92c-.11-3.47-.13-7.23,1.93-10a2.18,2.18,0,0,1,2-1.1c.88.19,1.27,1.26,1.27,2.16a6.54,6.54,0,0,0,.19,2.69,2.85,2.85,0,0,0,2.6,1.45,8.5,8.5,0,0,0,3-.72,91.3,91.3,0,0,1,23-5.54c3-.27,6.22-.31,9,1a12.76,12.76,0,0,1,5.66,5.64,27.5,27.5,0,0,1,2.55,7.69,66,66,0,0,1,1.3,15.36c0,1.36.38,5.44-1.74,5.34C266.58,113.52,265.28,110.7,264.82,109.32Z" transform="translate(-45.22 -69.2)"/><polygon class="cls-10" points="240.99 126.73 151.97 126.73 152.8 125.08 240.3 125.08 240.99 126.73"/><polygon class="cls-10" points="244.27 136.9 147.78 136.9 148.35 135.26 243.84 135.26 244.27 136.9"/><path class="cls-4" d="M250.88,114.78a6.49,6.49,0,0,1,4.74-3,5.15,5.15,0,0,1,2.9.5,6,6,0,0,1,2.22,1.8c-.45-.19-.83-.43-1.25-.61a8.56,8.56,0,0,0-1.25-.46,6,6,0,0,0-2.52-.24A10.82,10.82,0,0,0,250.88,114.78Z" transform="translate(-45.22 -69.2)"/><path class="cls-4" d="M233.79,114.09a6.16,6.16,0,0,0-5-2.2,12,12,0,0,0-2.8.49l-1.39.47c-.47.18-.93.36-1.43.51.38-.34.79-.64,1.2-1s.89-.52,1.35-.76a8,8,0,0,1,3-.75,5.42,5.42,0,0,1,3.09.79A4.5,4.5,0,0,1,233.79,114.09Z" transform="translate(-45.22 -69.2)"/><path class="cls-11" d="M45.22,212.64s9.8-48.08,52-48.08,47.66,48.08,47.66,48.08Z" transform="translate(-45.22 -69.2)"/><path class="cls-9" d="M65.76,163.2s37.66-6.91,57.51-.39c5.33-13.7,16.33-80-24.71-80.9C54.41,80.89,61.73,153,65.76,163.2Z" transform="translate(-45.22 -69.2)"/><circle class="cls-5" cx="66.59" cy="122.18" r="7.82" transform="translate(-110.14 98.46) rotate(-80.49)"/><circle class="cls-5" cx="124.67" cy="122.18" r="7.82" transform="translate(-61.13 156.47) rotate(-80.78)"/><path class="cls-6" d="M105.73,148.11l-1.32-17.37L90.84,132.6,88.62,158A24.52,24.52,0,0,0,105.73,148.11Z" transform="translate(-45.22 -69.2)"/><path class="cls-7" d="M69.68,105.53c-.73,1.83-.62,4.34-.74,6.26a74.53,74.53,0,0,0,.23,12.5c.91,8.21,4.84,15.35,12.28,19.32s17.65,5.4,25.6,2.13a23.74,23.74,0,0,0,13.35-13.15c2.77-6.94,2.8-15.82,2.43-23.31-1.39-27.76-24-27.35-24-27.35S78,84.7,69.68,105.53Z" transform="translate(-45.22 -69.2)"/><path class="cls-7" d="M88.62,158l-1,11.18s.4,5.58,9.44,6.65,10.11-8.38,10.11-8.38l-1.47-19.34A24.52,24.52,0,0,1,88.62,158Z" transform="translate(-45.22 -69.2)"/><path class="cls-4" d="M82.17,120.8c0,1.53-.62,2.77-1.38,2.77s-1.39-1.24-1.39-2.77S80,118,80.79,118,82.17,119.26,82.17,120.8Z" transform="translate(-45.22 -69.2)"/><path class="cls-4" d="M112,121.91c0,1.54-.62,2.78-1.39,2.78s-1.39-1.24-1.39-2.78.63-2.77,1.39-2.77S112,120.38,112,121.91Z" transform="translate(-45.22 -69.2)"/><path class="cls-4" d="M96.06,122.18c-.56.35-1.1.69-1.62,1s-1,.79-1,1.12c0,.14,0,.3.29.5a1.89,1.89,0,0,0,.67.42,2.26,2.26,0,0,0,1.71-.3,1.94,1.94,0,0,1-1.82.87,2.06,2.06,0,0,1-1-.45,1.29,1.29,0,0,1-.58-1.11,1.68,1.68,0,0,1,.63-1,4.54,4.54,0,0,1,.89-.53A6.25,6.25,0,0,1,96.06,122.18Z" transform="translate(-45.22 -69.2)"/><path class="cls-4" d="M92.2,128.7a12.52,12.52,0,0,0,1.9,1,5.84,5.84,0,0,0,2,.47,4.14,4.14,0,0,0,2-.37,9.51,9.51,0,0,0,1.82-1.12,7,7,0,0,1-.66.91,4.46,4.46,0,0,1-.89.72,3.71,3.71,0,0,1-2.26.61A5.1,5.1,0,0,1,92.2,128.7Z" transform="translate(-45.22 -69.2)"/><path class="cls-9" d="M66.59,109.58s30.32-2.83,30.84-20c2.42,14.48,15.41,16.18,28.77,19.13,0,0-4.23-29.18-30.52-26.83-5.57.49-10.43,3.74-14.58,7C71.7,96.34,67.55,107.35,66.59,109.58Z" transform="translate(-45.22 -69.2)"/><path class="cls-9" d="M99.3,83.13s1.77-10.08-.68-10.63-1.19,9.43-1.19,9.43-.79-6.16-4.43-6S96.58,83,99.3,83.13Z" transform="translate(-45.22 -69.2)"/><circle class="cls-5" cx="33.87" cy="61.38" r="2.92"/><circle class="cls-5" cx="66.8" cy="61.38" r="2.92"/><circle class="cls-8" cx="32.79" cy="52.71" r="10.77"/><circle class="cls-8" cx="67.46" cy="52.71" r="10.77"/><path class="cls-8" d="M88.62,121.36s7.84-6.25,13.29.55" transform="translate(-45.22 -69.2)"/><path class="cls-9" d="M107.09,114.79a6.35,6.35,0,0,1,2-2,6.14,6.14,0,0,1,2.75-1,5.21,5.21,0,0,1,2.91.51,6,6,0,0,1,2.21,1.8c-.44-.19-.83-.44-1.24-.62a8.94,8.94,0,0,0-1.25-.45,5.9,5.9,0,0,0-2.53-.24A10.69,10.69,0,0,0,107.09,114.79Z" transform="translate(-45.22 -69.2)"/><path class="cls-9" d="M83.83,114.72a8.38,8.38,0,0,0-5.12-2,11.17,11.17,0,0,0-2.74.34c-.46.11-.91.28-1.37.4s-.91.35-1.39.48c.37-.32.77-.62,1.17-.92a13.1,13.1,0,0,1,1.34-.7,7.85,7.85,0,0,1,3-.6,6.46,6.46,0,0,1,3,.82A5.36,5.36,0,0,1,83.83,114.72Z" transform="translate(-45.22 -69.2)"/><path class="cls-12" d="M191.54,411.61s9.8-48.08,52-48.08,47.66,48.08,47.66,48.08Z" transform="translate(-45.22 -69.2)"/><path class="cls-13" d="M233.38,364.53s-9,9.28-1.5,16c7.1,6.33,11.53-3.25,11.53-3.25s0,6,7,5.49,10.72-9,7.9-16.92C248.56,360.65,233.38,364.53,233.38,364.53Z" transform="translate(-45.22 -69.2)"/><circle class="cls-5" cx="167.69" cy="251.93" r="7.82"/><circle class="cls-5" cx="225.77" cy="251.93" r="7.82"/><path class="cls-6" d="M252.05,349.53l-1.32-17.37L237.16,334l-2.22,25.4A24.52,24.52,0,0,0,252.05,349.53Z" transform="translate(-45.22 -69.2)"/><path class="cls-7" d="M215.1,313.69a43.62,43.62,0,0,0,.39,9.55c.91,8.21,4.84,15.35,12.28,19.32s17.65,5.4,25.6,2.13a23.74,23.74,0,0,0,13.35-13.15c2.77-6.94,2.8-15.81,2.43-23.31-1.39-27.76-24-27.35-24-27.35S215,278.55,215.1,313.69Z" transform="translate(-45.22 -69.2)"/><path class="cls-7" d="M234.94,359.42l-1,11.18s.4,5.58,9.44,6.65,10.11-8.38,10.11-8.38l-1.47-19.34A24.52,24.52,0,0,1,234.94,359.42Z" transform="translate(-45.22 -69.2)"/><path class="cls-4" d="M231.11,319.28c0,1.53-.62,2.77-1.39,2.77s-1.39-1.24-1.39-2.77.62-2.78,1.39-2.78S231.11,317.74,231.11,319.28Z" transform="translate(-45.22 -69.2)"/><ellipse class="cls-4" cx="210.2" cy="250.55" rx="1.39" ry="2.78"/><path class="cls-4" d="M242.38,321.14c-.56.34-1.1.68-1.62,1s-1,.79-1,1.12c0,.14,0,.3.29.5a1.89,1.89,0,0,0,.67.42,2.26,2.26,0,0,0,1.71-.3,1.94,1.94,0,0,1-1.82.87,2.06,2.06,0,0,1-1-.45,1.29,1.29,0,0,1-.58-1.11,1.63,1.63,0,0,1,.63-1,4.15,4.15,0,0,1,.89-.54A6,6,0,0,1,242.38,321.14Z" transform="translate(-45.22 -69.2)"/><path class="cls-4" d="M238.52,327.65a12.52,12.52,0,0,0,1.9,1,5.84,5.84,0,0,0,2,.47,3.91,3.91,0,0,0,1.95-.37,9.51,9.51,0,0,0,1.82-1.12,7,7,0,0,1-.66.91,4.88,4.88,0,0,1-.89.73,3.77,3.77,0,0,1-2.26.6A5.1,5.1,0,0,1,238.52,327.65Z" transform="translate(-45.22 -69.2)"/><circle class="cls-5" cx="181.59" cy="258.46" r="2.92"/><circle class="cls-5" cx="211.59" cy="259.39" r="2.92"/><path class="cls-4" d="M213.84,322.83c.37-.52-9.43-43.42,29.44-43.54,36.93-.11,26.75,38.32,26.75,38.32s-15.9-9.82-18-25.43c.11.82-1.28,2.62-1.71,3.29a25.91,25.91,0,0,1-2.28,3,48.59,48.59,0,0,1-12,10.16,41.4,41.4,0,0,1-7.5,3.53c-2.8,1-5.71,1.53-8.39,2.84A12.82,12.82,0,0,0,213.84,322.83Z" transform="translate(-45.22 -69.2)"/><path class="cls-4" d="M251.49,283.83s-5.77-13.72,7-17.42,20.41,9.26,5.2,21.78C259.22,283.51,251.49,283.83,251.49,283.83Z" transform="translate(-45.22 -69.2)"/><circle class="cls-13" cx="198.02" cy="316.39" r="1.55"/><circle class="cls-13" cx="198.02" cy="325.33" r="1.55"/><path class="cls-3" d="M355.8,293.57s-6.15,20.91-2.4,23,4.4,0,4.4,0l5.12-21.24Z" transform="translate(-45.22 -69.2)"/><path class="cls-3" d="M412.43,314.73s3-25.23-3.17-25.07S400.89,316,412.43,314.73Z" transform="translate(-45.22 -69.2)"/><path class="cls-4" d="M331.48,411.61s9.8-48.08,52-48.08,47.66,48.08,47.66,48.08Z" transform="translate(-45.22 -69.2)"/><circle class="cls-5" cx="307.63" cy="251.93" r="7.82"/><circle class="cls-5" cx="365.71" cy="251.93" r="7.82"/><path class="cls-14" d="M392,349.53l-1.32-17.37L377.1,334l-2.22,25.4A24.52,24.52,0,0,0,392,349.53Z" transform="translate(-45.22 -69.2)"/><path class="cls-15" d="M355,313.69a43,43,0,0,0,.39,9.55c.91,8.21,4.84,15.35,12.28,19.32s17.65,5.4,25.6,2.13a23.74,23.74,0,0,0,13.35-13.15c2.77-6.94,2.8-15.81,2.43-23.31-1.39-27.76-24-27.35-24-27.35S354.93,278.55,355,313.69Z" transform="translate(-45.22 -69.2)"/><path class="cls-15" d="M374.88,359.42l-1,11.18s.4,5.58,9.44,6.65,10.11-8.38,10.11-8.38L392,349.53A24.52,24.52,0,0,1,374.88,359.42Z" transform="translate(-45.22 -69.2)"/><ellipse class="cls-4" cx="324.44" cy="250.08" rx="1.39" ry="2.78"/><ellipse class="cls-4" cx="350.14" cy="250.55" rx="1.39" ry="2.78"/><path class="cls-4" d="M382.32,321.14c-.56.34-1.1.68-1.62,1s-1,.79-1.06,1.12c0,.14.06.3.3.5a1.89,1.89,0,0,0,.67.42,2.26,2.26,0,0,0,1.71-.3,1.94,1.94,0,0,1-1.82.87,2.06,2.06,0,0,1-1-.45,1.29,1.29,0,0,1-.58-1.11,1.63,1.63,0,0,1,.63-1,4.15,4.15,0,0,1,.89-.54A6,6,0,0,1,382.32,321.14Z" transform="translate(-45.22 -69.2)"/><path class="cls-4" d="M378.46,327.65a12.52,12.52,0,0,0,1.9,1,5.84,5.84,0,0,0,2,.47,3.91,3.91,0,0,0,2-.37,9.51,9.51,0,0,0,1.82-1.12,7,7,0,0,1-.66.91,4.88,4.88,0,0,1-.89.73,3.77,3.77,0,0,1-2.26.6A5.1,5.1,0,0,1,378.46,327.65Z" transform="translate(-45.22 -69.2)"/><circle class="cls-5" cx="320.13" cy="260.33" r="2.92"/><circle class="cls-5" cx="353.06" cy="260.33" r="2.92"/><circle class="cls-8" cx="319.53" cy="248.7" r="10.77"/><circle class="cls-8" cx="354.21" cy="248.7" r="10.77"/><path class="cls-8" d="M375.37,317.34s7.83-6.24,13.29.56" transform="translate(-45.22 -69.2)"/><path class="cls-3" d="M407.31,297.93a62.24,62.24,0,0,0,.36-6.4,32.71,32.71,0,0,0-.88-9.67c-1.4-4.69-5.26-6.38-9.84-6.9a35.24,35.24,0,0,0-13,1.32,61.21,61.21,0,0,0-8.43,3c-12.24,5.33-22.37,5.06-23.38,1.57-1,5.3,1.73,7.7,5,8.11-5.21-.21-6.93-3.36-6.93-3.36s-.92,10.6,8.35,10.24,32.29-8.61,37.69-4.84S401.59,300.47,407.31,297.93Z" transform="translate(-45.22 -69.2)"/><path class="cls-3" d="M407.26,290.78c-.2-.09,1.66-7.86,3.67-7.86s-1.83,5.9-1.83,5.9,2.85-3.63,4.36-2.72S409.68,291.92,407.26,290.78Z" transform="translate(-45.22 -69.2)"/><path class="cls-3" d="M393.46,313.68a4.19,4.19,0,0,1,3.86-2.35,4.62,4.62,0,0,1,2.27.73,5.69,5.69,0,0,1,.9.72,7.58,7.58,0,0,1,.71.9c-.36-.16-.67-.34-1-.5s-.65-.31-1-.43a5.83,5.83,0,0,0-1.94-.42,4.7,4.7,0,0,0-1.94.33A9,9,0,0,0,393.46,313.68Z" transform="translate(-45.22 -69.2)"/><path class="cls-3" d="M365.79,313.68a4.17,4.17,0,0,1,3.86-2.35,4.62,4.62,0,0,1,2.27.73,6.18,6.18,0,0,1,.9.72,7.58,7.58,0,0,1,.71.9c-.36-.16-.68-.34-1-.5s-.65-.31-1-.43a5.94,5.94,0,0,0-1.94-.42,4.7,4.7,0,0,0-1.94.33A9,9,0,0,0,365.79,313.68Z" transform="translate(-45.22 -69.2)"/><path class="cls-12" d="M124,301.88l4,39.47s8.25-2.72,13.15,4.44-2,9.61-2,9.61c.78-.28,3.35,2.79,3.73,3.25,2,2.46,4.35,6.93,1.62,9.7a5.19,5.19,0,0,1-5.53.85c-1.41-.5-4.28-2.08-4.58-3.77,1.86,10.47-7.47,13.15-9.49,12.93s-24.47-7.81-24.47-7.81l-7.87,6.78-17.16-3.21S61,380.36,58.08,369.44c-1.54-5.83.36-11.84,6-14.4a12.84,12.84,0,0,1-7.85-.66,8.15,8.15,0,0,1-4.77-6c-.89-6.44,6.47-7.86,11.27-7.46l9.49-39.69Z" transform="translate(-45.22 -69.2)"/><path class="cls-3" d="M47.19,411.61s9.8-48.08,52-48.08,47.65,48.08,47.65,48.08Z" transform="translate(-45.22 -69.2)"/><circle class="cls-5" cx="23.34" cy="251.93" r="7.82"/><circle class="cls-5" cx="81.42" cy="251.93" r="7.82"/><path class="cls-6" d="M107.7,349.53l-1.32-17.37L92.81,334l-2.22,25.4A24.52,24.52,0,0,0,107.7,349.53Z" transform="translate(-45.22 -69.2)"/><path class="cls-7" d="M70.75,313.69a43,43,0,0,0,.39,9.55c.91,8.21,4.84,15.35,12.28,19.32s17.65,5.4,25.6,2.13a23.77,23.77,0,0,0,13.35-13.15c2.77-6.94,2.8-15.81,2.43-23.31-1.39-27.76-24-27.35-24-27.35S70.64,278.55,70.75,313.69Z" transform="translate(-45.22 -69.2)"/><path class="cls-7" d="M90.59,359.42l-1,11.18s.4,5.58,9.44,6.65,10.11-8.38,10.11-8.38l-1.47-19.34A24.52,24.52,0,0,1,90.59,359.42Z" transform="translate(-45.22 -69.2)"/><ellipse class="cls-4" cx="40.15" cy="250.08" rx="1.39" ry="2.78"/><ellipse class="cls-4" cx="65.85" cy="250.55" rx="1.39" ry="2.78"/><path class="cls-4" d="M98,321.14c-.56.34-1.1.68-1.62,1s-1,.79-1.06,1.12c0,.14.06.3.3.5a1.89,1.89,0,0,0,.67.42,2.26,2.26,0,0,0,1.71-.3,1.94,1.94,0,0,1-1.82.87,2.06,2.06,0,0,1-1-.45,1.29,1.29,0,0,1-.58-1.11,1.63,1.63,0,0,1,.63-1,4.15,4.15,0,0,1,.89-.54A6,6,0,0,1,98,321.14Z" transform="translate(-45.22 -69.2)"/><circle class="cls-5" cx="38.06" cy="259.06" r="2.92"/><circle class="cls-5" cx="67.24" cy="259.76" r="2.92"/><path class="cls-16" d="M95.14,328.79s.86-1.46,1.9-1,.9.8.9.8a2.86,2.86,0,0,1,1.55-.89c.82-.09,1.85.91,1.85.91S98.59,334.16,95.14,328.79Z" transform="translate(-45.22 -69.2)"/><path class="cls-4" d="M94.17,328a11.76,11.76,0,0,0,1.9,1,5.84,5.84,0,0,0,2,.47,4.14,4.14,0,0,0,2-.37,9.09,9.09,0,0,0,1.82-1.13,5.86,5.86,0,0,1-.66.91,4.18,4.18,0,0,1-.89.73,3.71,3.71,0,0,1-2.26.61A5.11,5.11,0,0,1,94.17,328Z" transform="translate(-45.22 -69.2)"/><path class="cls-12" d="M99.15,281.56s-2-6.22,0-6.53.95,5.81.95,5.81.9-4.1,2.81-3S100.62,282.19,99.15,281.56Z" transform="translate(-45.22 -69.2)"/><path class="cls-4" d="M111.07,317.5s2.54-.09,3.3-1.61c0,2.35-2.76,3.39-2.76,3.39Z" transform="translate(-45.22 -69.2)"/><path class="cls-4" d="M84.93,317s-2.55-.09-3.31-1.61c0,2.35,2.77,3.39,2.77,3.39Z" transform="translate(-45.22 -69.2)"/><path class="cls-12" d="M123.46,298.19a40.74,40.74,0,0,0-2.32-5.17,21.73,21.73,0,0,0-7.39-8.16,24.43,24.43,0,0,0-9-3.57,32.61,32.61,0,0,0-15.88,1.48,27.9,27.9,0,0,0-11.93,8.36c-1.74,2.34-5.2,7-6,18.43,0,0,12.68,1.39,25.61-11.51-.51,6.62-3.72,9.18-3.72,9.18s11-.31,13.51-9.91c8.37,5.56,4.78,11.05,4.78,11.05a20.2,20.2,0,0,0,9.23-4.67c-.2.2,0,1.61.07,1.9a15.77,15.77,0,0,0,.27,1.95A9.73,9.73,0,0,0,122,311c.52.79,1.67,2.23,2.7,2.36s1.21-3.16,1.2-4A34.45,34.45,0,0,0,123.46,298.19Z" transform="translate(-45.22 -69.2)"/><path class="cls-2" d="M63.16,379.86s5.5,31.75,5.4,31.75h59l7.47-30a67.72,67.72,0,0,0-6.56-7.34c-.53,4.07-9.41,29.95-9.41,29.95l-42.67.67-5.74-32S65.41,376.77,63.16,379.86Z" transform="translate(-45.22 -69.2)"/><path class="cls-4" d="M492.05,115.25s-5-15.67,7.73-21.86,46.05-.32,46.05-.32,3.89,22.05-.23,24.93S492.05,115.25,492.05,115.25Z" transform="translate(-45.22 -69.2)"/><circle class="cls-5" cx="492.05" cy="122.17" r="7.82" transform="translate(214.52 503.61) rotate(-76.67)"/><circle class="cls-5" cx="550.13" cy="122.17" r="7.82" transform="translate(-50.29 149.53) rotate(-22.39)"/><path class="cls-6" d="M531.19,150.56l-1.32-17.37-13.56,1.86-2.22,25.4A24.45,24.45,0,0,0,531.19,150.56Z" transform="translate(-45.22 -69.2)"/><path class="cls-4" d="M542,130.49c-.76,1.65-1.15,3.45-2,5a9.53,9.53,0,0,1-12.27,4,16.67,16.67,0,0,0-3.89-1.79,4.48,4.48,0,0,0-3.7,1c-.84.73-1.41,1.78-2.37,2.32a4.8,4.8,0,0,1-2.28.48,11.78,11.78,0,0,1-9.92-5.15c-2.13-3-3.47-6.54-6.07-9.19a22.18,22.18,0,0,0-4.88-3.53c0,.2.05.4.07.61.91,8.21,4.83,15.36,12.28,19.33s17.64,5.39,25.59,2.12a23.66,23.66,0,0,0,13.35-13.14,33.6,33.6,0,0,0,1.93-7.38A9.7,9.7,0,0,0,542,130.49Z" transform="translate(-45.22 -69.2)"/><path class="cls-7" d="M548.29,109.26c-1.38-27.76-24-27.35-24-27.35s-30.17-2.32-30,32.81a40.52,40.52,0,0,0,.32,8.94,22.18,22.18,0,0,1,4.88,3.53c3.72,3.79,5,9.77,9.53,12.62a12,12,0,0,0,6.12,1.71,4.78,4.78,0,0,0,3-.68,14.3,14.3,0,0,0,1.6-1.78,4.63,4.63,0,0,1,4.28-1.3,17.57,17.57,0,0,1,3.67,1.74,9.41,9.41,0,0,0,12.3-4c.87-1.59,1.26-3.39,2-5a9.7,9.7,0,0,1,5.82-5.29A79.28,79.28,0,0,0,548.29,109.26Z" transform="translate(-45.22 -69.2)"/><path class="cls-17" d="M470.69,212.64s9.79-48.08,51.95-48.08,47.66,48.08,47.66,48.08Z" transform="translate(-45.22 -69.2)"/><path class="cls-7" d="M514.09,160.45l-1,11.18s.49-.25,9.53.82,9.69-7,9.69-7l-1.14-14.93A24.45,24.45,0,0,1,514.09,160.45Z" transform="translate(-45.22 -69.2)"/><path class="cls-4" d="M510.25,120.31c0,1.53-.62,2.78-1.38,2.78s-1.39-1.25-1.39-2.78.62-2.78,1.39-2.78S510.25,118.78,510.25,120.31Z" transform="translate(-45.22 -69.2)"/><ellipse class="cls-4" cx="489.34" cy="51.58" rx="1.39" ry="2.78"/><path class="cls-4" d="M524.17,122.17c-.55.35-1.1.69-1.61,1s-1,.79-1.06,1.12c0,.14.06.3.29.5a1.8,1.8,0,0,0,.68.42,2.19,2.19,0,0,0,1.7-.3,2,2,0,0,1-1.82.88,2.16,2.16,0,0,1-1-.45,1.33,1.33,0,0,1-.59-1.12,1.59,1.59,0,0,1,.64-1,3.82,3.82,0,0,1,.88-.53A5.87,5.87,0,0,1,524.17,122.17Z" transform="translate(-45.22 -69.2)"/><path class="cls-4" d="M518.81,131.33a12.61,12.61,0,0,0,1.91,1,5.8,5.8,0,0,0,2,.48,4.07,4.07,0,0,0,2-.38,9.32,9.32,0,0,0,1.82-1.12,9.55,9.55,0,0,1-.66.91,4.5,4.5,0,0,1-.89.73,3.74,3.74,0,0,1-2.26.6A5.12,5.12,0,0,1,518.81,131.33Z" transform="translate(-45.22 -69.2)"/><circle class="cls-5" cx="462.26" cy="58.82" r="2.92"/><circle class="cls-5" cx="490.37" cy="59.48" r="2.92"/><path class="cls-4" d="M530.45,115.25a5.26,5.26,0,0,1,1.79-2.38,5.78,5.78,0,0,1,2.89-1.16,5,5,0,0,1,3.1.63,5.12,5.12,0,0,1,1.22.93,6.12,6.12,0,0,1,.86,1.24c-1-.25-1.81-.58-2.64-.7a7.08,7.08,0,0,0-2.33-.11A17.22,17.22,0,0,0,530.45,115.25Z" transform="translate(-45.22 -69.2)"/><path class="cls-4" d="M513.36,114.51a7.25,7.25,0,0,0-5-1.69,17.61,17.61,0,0,0-2.68.35c-.45.13-.94.2-1.42.32a11.53,11.53,0,0,1-1.53.29,10.85,10.85,0,0,1,1.08-1.17,12.33,12.33,0,0,1,1.32-.91,7.18,7.18,0,0,1,3.17-.88,5.36,5.36,0,0,1,3.29.94A4.08,4.08,0,0,1,513.36,114.51Z" transform="translate(-45.22 -69.2)"/><path class="cls-4" d="M530.34,128.14c-2.42.93-4.09-4.83-7-2.58,0,0-.1.09-.5,0v-.08l-.16,0-.16,0v.08c-.39.07-.5,0-.5,0-3-2.25-4.62,3.51-7,2.58,2.17,1.71,3.61,2.2,7.69.06C526.72,130.34,528.16,129.85,530.34,128.14Z" transform="translate(-45.22 -69.2)"/><path class="cls-4" d="M547.44,114c-3.76-1-6.63-20.54-12.88-20.86s-26.63,19.45-37.89,10.48-9-20.25-6.87-21.1,3,4.61,3,4.61-.65-6,1.77-6.44,2.74,5.26,2.74,5.26-1.41-7,2.57-7.08,1.83,6.76,1.83,6.76S528,69.27,536,81.88C552.58,85.34,551.19,115,547.44,114Z" transform="translate(-45.22 -69.2)"/><path class="cls-4" d="M535.59,82.8s1-5.55,2.39-5.7-1.2,5-1.2,5,2.34-3,3-2.13S536.77,83.56,535.59,82.8Z" transform="translate(-45.22 -69.2)"/><path class="cls-18" d="M513.74,164.46l8.9,8-5,9.78s-8.62-6.81-8.2-15.93c4.85-8,4.61-5.33,4.61-5.33Z" transform="translate(-45.22 -69.2)"/><path class="cls-18" d="M532.1,164.46l-9.46,8,5.57,9.78s8.62-6.81,8.2-15.93c-4.85-8-4.61-5.33-4.61-5.33Z" transform="translate(-45.22 -69.2)"/><path class="cls-13" d="M523.76,182.23a1,1,0,1,1-2.08,0,1,1,0,1,1,2.08,0Z" transform="translate(-45.22 -69.2)"/><path class="cls-13" d="M523.76,199.32a1,1,0,1,1-1-1A1,1,0,0,1,523.76,199.32Z" transform="translate(-45.22 -69.2)"/><path class="cls-9" d="M550.64,334.7c2.54,4.34,6.09,8,9.31,11.85s6.22,8.12,7.33,13a19.68,19.68,0,0,1-10.13,21.34c-3.58,1.78-7.63,2.38-11.6,2.91-14.69,1.93-29.76,3-44.2-.28a29.21,29.21,0,0,1-11-4.47c-3.21-2.36-5.67-6-5.78-10-.17-6.07,4.78-10.89,7.36-16.38,2.72-5.77,2.79-12.4,2.6-18.78-.1-3.24-.23-6.61,1-9.62,1.62-3.94,5.32-6.62,9.08-8.62a52.53,52.53,0,0,1,27-6c5.39.27,14.14,2.74,15.67,8.88.51,2,0,4.28.12,6.35A22.44,22.44,0,0,0,550.64,334.7Z" transform="translate(-45.22 -69.2)"/><path class="cls-19" d="M471.51,411.61s9.8-48.08,52-48.08,47.66,48.08,47.66,48.08Z" transform="translate(-45.22 -69.2)"/><circle class="cls-5" cx="447.66" cy="251.93" r="7.82"/><circle class="cls-5" cx="505.74" cy="251.93" r="7.82"/><path class="cls-6" d="M532,349.53l-1.32-17.37L517.13,334l-2.21,25.4A24.52,24.52,0,0,0,532,349.53Z" transform="translate(-45.22 -69.2)"/><path class="cls-7" d="M495.07,313.69a43,43,0,0,0,.4,9.55c.9,8.21,4.83,15.35,12.27,19.32s17.65,5.4,25.6,2.13a23.74,23.74,0,0,0,13.35-13.15c2.78-6.94,2.81-15.81,2.43-23.31-1.39-27.76-24-27.35-24-27.35S495,278.55,495.07,313.69Z" transform="translate(-45.22 -69.2)"/><path class="cls-7" d="M514.92,359.42l-1,11.18s.4,5.58,9.44,6.65,10.11-8.38,10.11-8.38L532,349.53A24.52,24.52,0,0,1,514.92,359.42Z" transform="translate(-45.22 -69.2)"/><ellipse class="cls-4" cx="464.47" cy="250.08" rx="1.39" ry="2.78"/><ellipse class="cls-4" cx="490.17" cy="250.55" rx="1.39" ry="2.78"/><path class="cls-4" d="M522.35,321.14c-.56.34-1.1.68-1.61,1s-1,.79-1.06,1.12c0,.14.05.3.29.5a1.89,1.89,0,0,0,.67.42,2.25,2.25,0,0,0,1.71-.3,1.94,1.94,0,0,1-1.82.87,2.06,2.06,0,0,1-1-.45,1.29,1.29,0,0,1-.58-1.11,1.59,1.59,0,0,1,.64-1,3.86,3.86,0,0,1,.88-.54A6,6,0,0,1,522.35,321.14Z" transform="translate(-45.22 -69.2)"/><path class="cls-4" d="M518.52,328.59a12.52,12.52,0,0,0,1.9,1,5.61,5.61,0,0,0,2,.47,3.91,3.91,0,0,0,2-.37,9.58,9.58,0,0,0,1.83-1.12,8.18,8.18,0,0,1-.67.91,4.5,4.5,0,0,1-.89.73,3.69,3.69,0,0,1-2.25.6A5.1,5.1,0,0,1,518.52,328.59Z" transform="translate(-45.22 -69.2)"/><circle class="cls-5" cx="461.58" cy="259.39" r="2.92"/><circle class="cls-5" cx="491.56" cy="259.82" r="2.92"/><path class="cls-9" d="M532.31,313.4a4.19,4.19,0,0,1,3.86-2.35,4.59,4.59,0,0,1,2.27.73,7,7,0,0,1,.91.72,8.68,8.68,0,0,1,.7.9c-.36-.15-.67-.34-1-.5s-.65-.31-1-.43a5.83,5.83,0,0,0-1.94-.42,4.7,4.7,0,0,0-1.94.33A9,9,0,0,0,532.31,313.4Z" transform="translate(-45.22 -69.2)"/><path class="cls-9" d="M504.64,313.4a4.19,4.19,0,0,1,3.86-2.35,4.59,4.59,0,0,1,2.27.73,7,7,0,0,1,.91.72,8.68,8.68,0,0,1,.7.9c-.36-.15-.67-.34-1-.5s-.65-.31-1-.43a5.83,5.83,0,0,0-1.94-.42,4.7,4.7,0,0,0-1.94.33A9,9,0,0,0,504.64,313.4Z" transform="translate(-45.22 -69.2)"/><path class="cls-9" d="M495,313.68s23.91-6.59,27.16-21.15c5.43,11.8,17.82,19.79,27.17,21,0,0,3.15-33.7-25.82-32.64S495.24,306.77,495,313.68Z" transform="translate(-45.22 -69.2)"/><path class="cls-9" d="M520.82,282.64s-3.65-6.4-2.14-7.32,2.79,5.64,2.79,5.64.17-6.47,2.26-5.73S523.54,282.88,520.82,282.64Z" transform="translate(-45.22 -69.2)"/><path class="cls-13" d="M497.08,403.93A2.12,2.12,0,1,1,495,401.8,2.12,2.12,0,0,1,497.08,403.93Z" transform="translate(-45.22 -69.2)"/><path class="cls-13" d="M498,376.9a2.13,2.13,0,1,1-2.84,1A2.13,2.13,0,0,1,498,376.9Z" transform="translate(-45.22 -69.2)"/><path class="cls-13" d="M539.18,402a2.12,2.12,0,1,1-2.84,1A2.12,2.12,0,0,1,539.18,402Z" transform="translate(-45.22 -69.2)"/><path class="cls-13" d="M522.24,389a2.12,2.12,0,1,1-2.83,1A2.12,2.12,0,0,1,522.24,389Z" transform="translate(-45.22 -69.2)"/><path class="cls-13" d="M541.4,372.24a2.13,2.13,0,1,1-2.84,1A2.12,2.12,0,0,1,541.4,372.24Z" transform="translate(-45.22 -69.2)"/><path class="cls-13" d="M557.77,391.24a2.12,2.12,0,1,1-2.83,1A2.12,2.12,0,0,1,557.77,391.24Z" transform="translate(-45.22 -69.2)"/><path class="cls-20" d="M638,106.73c-1.92,4-1.78,8.68-2.56,13.06-2.36,13.11-12.71,23-20.7,33.66a18.68,18.68,0,0,0-3.7,7c-.57,2.58.06,5.6,2.16,7.2a7.72,7.72,0,0,1,2.63-6.08,23,23,0,0,1,5.79-3.64c-2.23,2.45-4.11,5.48-4.13,8.79,0,5.28,4.45,9.39,8.78,12.41,9.71,6.78,21.26,12.06,33,10.81,7.38-.78,14.27-4.07,20.62-7.91,7.06-4.26,9.29-12.66,11.07-20.29,3.07-13.24,2.73-26.86,2.51-40.35-.08-4.67-2.49-7.85-4.74-12-3.28-6.12-10.07-9.74-16.92-10.85S658,98.39,651.1,99.56C646.39,100.36,640,102.42,638,106.73Z" transform="translate(-45.22 -69.2)"/><path class="cls-7" d="M667.76,202.47c23.43.83,27-18.49,26.83-31.07-7-5.43-16.16-9.16-28.18-9.16a48.15,48.15,0,0,0-29,9.12C637.23,179,639,201.46,667.76,202.47Z" transform="translate(-45.22 -69.2)"/><path class="cls-4" d="M694.59,171.4c.15,12.58-3.4,31.9-26.83,31.07-28.74-1-30.53-23.5-30.31-31.11-20.06,14.53-25.51,41.28-25.51,41.28H716.37S713.31,185.93,694.59,171.4Z" transform="translate(-45.22 -69.2)"/><circle class="cls-5" cx="634.34" cy="117.79" r="8.2" transform="translate(328.25 638.68) rotate(-76.67)"/><circle class="cls-5" cx="695.23" cy="117.79" r="8.2" transform="translate(375.1 697.93) rotate(-76.67)"/><path class="cls-6" d="M675.37,147.56,674,129.34l-14.23,2-2.32,26.62A25.63,25.63,0,0,0,675.37,147.56Z" transform="translate(-45.22 -69.2)"/><path class="cls-20" d="M647.45,108.48c16.37-3.57,19.62-19.83,26.93-21.78-1.84,3.23,3.88,22.84,19.09,22.84,0-1.8-.09-3.58-.17-5.28-1.46-29.11-25.16-28.68-25.16-28.68s-31.08-2.38-31.49,33.49A28.34,28.34,0,0,0,647.45,108.48Z" transform="translate(-45.22 -69.2)"/><path class="cls-7" d="M674.38,86.7c-7.31,2-10.56,18.21-26.93,21.78a28.34,28.34,0,0,1-10.8.59c0,.3,0,.6,0,.92a44.76,44.76,0,0,0,.41,10c1,8.6,5.06,16.09,12.87,20.26s18.5,5.65,26.83,2.22a24.8,24.8,0,0,0,14-13.78c2.28-5.7,2.79-12.64,2.72-19.16C678.26,109.54,672.54,89.93,674.38,86.7Z" transform="translate(-45.22 -69.2)"/><path class="cls-7" d="M657.44,157.92l-1,11.72s.42,5.86,9.9,7,10.6-8.79,10.6-8.79l-1.55-20.27A25.63,25.63,0,0,1,657.44,157.92Z" transform="translate(-45.22 -69.2)"/><path class="cls-4" d="M653.42,115.84c0,1.61-.65,2.91-1.46,2.91s-1.45-1.3-1.45-2.91.65-2.91,1.45-2.91S653.42,114.23,653.42,115.84Z" transform="translate(-45.22 -69.2)"/><path class="cls-4" d="M680.36,116.33c0,1.61-.65,2.92-1.46,2.92s-1.45-1.31-1.45-2.92.65-2.91,1.45-2.91S680.36,114.73,680.36,116.33Z" transform="translate(-45.22 -69.2)"/><path class="cls-4" d="M665.23,117.79c-.58.36-1.16.71-1.7,1.07s-1.09.82-1.12,1.19c0,.15.07.33.32.54a2,2,0,0,0,.71.44,2.37,2.37,0,0,0,1.79-.33,2,2,0,0,1-1.9.9,2.13,2.13,0,0,1-1.06-.47,1.34,1.34,0,0,1-.6-1.15,1.7,1.7,0,0,1,.66-1.07,3.93,3.93,0,0,1,.92-.55A6.6,6.6,0,0,1,665.23,117.79Z" transform="translate(-45.22 -69.2)"/><path class="cls-4" d="M661.19,124.62a12.38,12.38,0,0,0,2,1.08,6,6,0,0,0,2.08.5,4.13,4.13,0,0,0,2.06-.4,9.17,9.17,0,0,0,1.9-1.18,8.81,8.81,0,0,1-.7.94,4.29,4.29,0,0,1-.93.76,3.91,3.91,0,0,1-2.36.63A5.36,5.36,0,0,1,661.19,124.62Z" transform="translate(-45.22 -69.2)"/><circle class="cls-5" cx="605.29" cy="54.36" r="3.06"/><circle class="cls-5" cx="633.68" cy="55.74" r="3.06"/><path class="cls-20" d="M669.21,77.56s-2.24-8,0-8.34,1.36,6.55,1.36,6.55,1.47-4.41,3.61-3.24S672,77.54,669.21,77.56Z" transform="translate(-45.22 -69.2)"/><path class="cls-11" d="M613.22,411.61s9.72-47.71,51.55-47.71,47.29,47.71,47.29,47.71Z" transform="translate(-45.22 -69.2)"/><circle class="cls-5" cx="589.2" cy="252.64" r="7.76"/><circle class="cls-5" cx="646.83" cy="252.64" r="7.76"/><path class="cls-6" d="M673.26,350l-1.32-17.24-13.46,1.85-2.2,25.2A24.28,24.28,0,0,0,673.26,350Z" transform="translate(-45.22 -69.2)"/><path class="cls-7" d="M636.6,314.45a42.38,42.38,0,0,0,.39,9.48c.9,8.14,4.79,15.23,12.18,19.17s17.51,5.36,25.39,2.11a23.56,23.56,0,0,0,13.25-13c2.75-6.89,2.78-15.7,2.41-23.13-1.37-27.55-23.81-27.14-23.81-27.14S636.48,279.59,636.6,314.45Z" transform="translate(-45.22 -69.2)"/><path class="cls-7" d="M656.28,359.82l-1,11.09s.39,5.55,9.37,6.6,10-8.31,10-8.31L673.26,350A24.28,24.28,0,0,1,656.28,359.82Z" transform="translate(-45.22 -69.2)"/><path class="cls-4" d="M652.48,320c0,1.52-.62,2.75-1.38,2.75s-1.38-1.23-1.38-2.75.62-2.76,1.38-2.76S652.48,318.47,652.48,320Z" transform="translate(-45.22 -69.2)"/><path class="cls-4" d="M678,320.46c0,1.52-.62,2.76-1.38,2.76s-1.38-1.24-1.38-2.76.62-2.75,1.38-2.75S678,318.94,678,320.46Z" transform="translate(-45.22 -69.2)"/><path class="cls-4" d="M663.66,321.84c-.55.35-1.09.68-1.6,1s-1,.78-1,1.11c0,.13.06.29.29.49a1.89,1.89,0,0,0,.67.42,2.26,2.26,0,0,0,1.69-.3,1.93,1.93,0,0,1-1.81.87,2.06,2.06,0,0,1-1-.45,1.31,1.31,0,0,1-.58-1.1,1.59,1.59,0,0,1,.64-1,4,4,0,0,1,.87-.53A6,6,0,0,1,663.66,321.84Z" transform="translate(-45.22 -69.2)"/><path class="cls-4" d="M659.83,328.3a11.15,11.15,0,0,0,1.89,1,5.51,5.51,0,0,0,2,.47,4,4,0,0,0,1.94-.37,9.69,9.69,0,0,0,1.81-1.11,7.16,7.16,0,0,1-.66.9,4.12,4.12,0,0,1-.88.73,3.75,3.75,0,0,1-2.24.6A5.06,5.06,0,0,1,659.83,328.3Z" transform="translate(-45.22 -69.2)"/><path class="cls-5" d="M651.6,328.43a2.9,2.9,0,1,1-2.9-2.9A2.9,2.9,0,0,1,651.6,328.43Z" transform="translate(-45.22 -69.2)"/><path class="cls-5" d="M680.88,327.85A2.9,2.9,0,1,1,678,325,2.9,2.9,0,0,1,680.88,327.85Z" transform="translate(-45.22 -69.2)"/><path class="cls-4" d="M673.59,312.93a4.19,4.19,0,0,1,3.86-2.35,4.59,4.59,0,0,1,2.27.73,7,7,0,0,1,.91.72,7.5,7.5,0,0,1,.7.9c-.35-.15-.67-.34-1-.5s-.65-.31-1-.43a5.83,5.83,0,0,0-1.94-.42,4.7,4.7,0,0,0-1.94.33A9,9,0,0,0,673.59,312.93Z" transform="translate(-45.22 -69.2)"/><path class="cls-4" d="M645.92,312.93a4.19,4.19,0,0,1,3.86-2.35,4.59,4.59,0,0,1,2.27.73,7,7,0,0,1,.91.72,8.68,8.68,0,0,1,.7.9c-.36-.15-.67-.34-1-.5s-.65-.31-1-.43a5.83,5.83,0,0,0-1.94-.42,4.7,4.7,0,0,0-1.94.33A9,9,0,0,0,645.92,312.93Z" transform="translate(-45.22 -69.2)"/><path class="cls-4" d="M636.6,314.45c0,.34,3.73-16.55,8.53-18.88-2.18,4.07-3,4.65-3,4.65s7.46-.87,10.3-6a6,6,0,0,1-1.38,5.23s13.5,6.95,22.16-2.18a5.31,5.31,0,0,1,0,5.09s8.34,0,10-5.38a51,51,0,0,1,7.14,17.06s3.39-32.76-25.37-32.21C635.5,282.43,637,309.17,636.6,314.45Z" transform="translate(-45.22 -69.2)"/><path class="cls-4" d="M667.43,282.53s-1.57-5.6.43-6.11.4,6.11.4,6.11,1.4-5.7,2.7-4.2S670.09,284.63,667.43,282.53Z" transform="translate(-45.22 -69.2)"/></g></g></svg>